<svg width="461" height="99" viewBox="0 0 461 99" fill="none" xmlns="http://www.w3.org/2000/svg">
<g clip-path="url(#clip0_2_8)">
<path d="M96.61 28.37H77.34V97.47H96.61V28.37Z" stroke="black" stroke-miterlimit="10"/>
<path d="M24.88 31.92C24.88 29.3 25.83 27.22 27.77 25.63C29.69 24.04 32.33 23.25 35.66 23.25C43.97 23.25 52.02 26.2 59.81 32.11L69.97 17.46C65.5 13.69 60.28 10.79 54.3 8.72C48.31 6.68 42.31 5.64 36.32 5.64C27.16 5.64 19.51 7.95 13.39 12.58C7.26 17.2 4.2 23.78 4.2 32.3C4.2 40.82 6.62 47.08 11.46 51.05C16.3 55.04 23.94 58.26 34.4 60.75C40.98 62.38 45.4 63.98 47.63 65.56C49.85 67.15 50.96 69.28 50.96 71.98C50.96 74.68 49.92 76.82 47.81 78.41C45.72 79.99 42.82 80.79 39.14 80.79C30.93 80.79 21.98 76.55 12.3 68.08L0.339996 82.72C11.74 93.25 24.53 98.51 38.74 98.51C48.58 98.51 56.53 96.01 62.57 91C68.61 85.99 71.62 79.46 71.62 71.41C71.62 63.36 69.26 57.23 64.55 53.04C59.84 48.84 53.23 45.7 44.71 43.6C36.19 41.5 30.75 39.69 28.39 38.14C26.04 36.6 24.87 34.52 24.87 31.91" stroke="black" stroke-miterlimit="10"/>
<path d="M95.01 19.58C97.2 17.4 98.29 14.72 98.29 11.55C98.29 8.38 97.2 5.7 95.01 3.52C92.83 1.33 90.15 0.239998 86.99 0.239998C83.83 0.239998 81.14 1.33 78.95 3.52C76.77 5.7 75.68 8.38 75.68 11.55C75.68 14.72 76.77 17.4 78.95 19.58C81.14 21.76 83.81 22.85 86.99 22.85C90.17 22.85 92.83 21.76 95.01 19.58Z" stroke="black" stroke-miterlimit="10"/>
<path d="M171.99 97.48L147.32 62.16L171.08 28.37H148.48L136.27 46.88L124.47 28.37H101.46L124.33 62.29L100.18 97.48H122.4L135.5 78.48L148.99 97.48H171.99Z" stroke="black" stroke-miterlimit="10"/>
<path d="M201 42.26H217.69V28.37H201V7.7H181.61V28.37H173.51V42.26H181.61V74.11C181.61 81.65 183.9 87.6 188.47 91.96C193.06 96.33 198.67 98.51 205.31 98.51C211.95 98.51 218.05 95.84 223.96 90.54C220.64 86.68 218.23 82.24 216.65 77.3C214.23 80.22 211.35 81.7 207.94 81.7C206.05 81.7 204.43 80.96 203.05 79.46C201.69 77.95 201 75.87 201 73.22V42.27V42.26Z" stroke="black" stroke-miterlimit="10"/>
<path d="M240.43 55.99C240.95 52.06 242.78 48.93 245.96 46.62C249.12 44.3 252.61 43.15 256.42 43.15C260.23 43.15 263.46 44.27 266.11 46.49C268.77 48.72 270.31 51.88 270.74 55.99H240.43V55.99Z" stroke="black" stroke-miterlimit="10"/>
<path d="M313.52 55.99C314.04 52.06 315.87 48.93 319.05 46.62C322.21 44.3 325.7 43.15 329.51 43.15C333.32 43.15 336.55 44.27 339.2 46.49C341.86 48.72 343.4 51.88 343.83 55.99H313.52V55.99Z" stroke="black" stroke-miterlimit="10"/>
<path d="M239.91 69.74H290.26V59.46C290.26 49.44 286.95 41.57 280.32 35.83C273.68 30.09 265.61 27.23 256.11 27.23C246.61 27.23 238.37 30.44 231.38 36.86C224.41 43.28 220.91 51.93 220.91 62.81C220.91 73.69 224.33 82.36 231.19 88.83C238.03 95.3 246.71 98.52 257.2 98.52C267.69 98.52 276.82 94.84 284.62 87.48L273.83 75.79C269.46 80.33 263.9 82.59 257.14 82.59C252.94 82.59 249.18 81.39 245.83 79C242.49 76.59 240.52 73.51 239.92 69.75" stroke="black" stroke-miterlimit="10"/>
<path d="M313 69.74H363.35V59.46C363.35 49.44 360.04 41.57 353.41 35.83C346.77 30.09 338.7 27.23 329.2 27.23C319.7 27.23 311.46 30.44 304.47 36.86C297.5 43.28 294 51.93 294 62.81C294 73.69 297.42 82.36 304.28 88.83C311.12 95.3 319.8 98.52 330.29 98.52C340.78 98.52 349.91 94.84 357.71 87.48L346.92 75.79C342.55 80.33 336.99 82.59 330.23 82.59C326.03 82.59 322.27 81.39 318.92 79C315.58 76.59 313.61 73.51 313.01 69.75" stroke="black" stroke-miterlimit="10"/>
<path d="M411.79 97.48H431.06V55.48C431.06 46.92 428.6 40.07 423.68 34.93C418.76 29.79 412.66 27.23 405.37 27.23C398.08 27.23 391.55 30.18 385.72 36.08V28.37H366.46V97.48H385.72V58.95C385.72 53.56 387.15 49.47 390.02 46.68C392.89 43.89 396.25 42.5 400.1 42.5C407.9 42.5 411.79 47.81 411.79 58.43V97.48Z" stroke="black" stroke-miterlimit="10"/>
<path d="M460.33 87.21C460.33 84.04 459.24 81.36 457.06 79.18C454.87 76.99 452.19 75.9 449.03 75.9C445.87 75.9 443.18 76.99 441 79.18C438.81 81.36 437.72 84.04 437.72 87.21C437.72 90.38 438.81 93.06 441 95.24C443.18 97.42 445.86 98.51 449.03 98.51C452.2 98.51 454.87 97.42 457.06 95.24C459.24 93.06 460.33 90.38 460.33 87.21Z" stroke="black" stroke-miterlimit="10"/>
</g>
<defs>
<clipPath id="clip0_2_8">
<rect width="460.58" height="98.76" fill="white"/>
</clipPath>
</defs>
</svg>
